<svg xmlns="http://www.w3.org/2000/svg" version="1.1" xmlns:xlink="http://www.w3.org/1999/xlink" xmlns:svgjs="http://svgjs.com/svgjs" width="1920" height="1080" preserveAspectRatio="none" viewBox="0 0 1920 1080"><g mask="url(&quot;#SvgjsMask1000&quot;)" fill="none"><rect width="1920" height="1080" x="0" y="0" fill="rgba(9, 48, 56, 1)"></rect><use xlink:href="#SvgjsG1007" transform="translate(0, 0)" fill="rgba(17, 86, 102, 1)"></use><use xlink:href="#SvgjsG1007" transform="translate(1080, 0)" fill="rgba(17, 86, 102, 1)"></use></g><defs><mask id="SvgjsMask1000"><rect width="1920" height="1080" fill="#ffffff"></rect></mask><g id="SvgjsG1001"><path d="M3.898 0s0.232 4.58 4.246 4.192S8.597 0.364 3.898 0m4.203 14.894a2.324 2.324 0 0 1-1.902 0.977c-0.64 0-1.267-0.3-1.689-0.721-0.864-0.943-1.985-3.051-1.986-3.052C1.897 10.822 1.56 9.837 1.56 8.839c0-2.126 1.72-3.968 3.848-3.968 1.05 0 1.996 0.42 2.692 1.099a3.835 3.835 0 0 1 2.69-1.099c2.129 0 3.848 1.842 3.849 3.967 0 0.997-0.334 1.983-0.964 3.259 0 0-1.12 2.108-1.984 3.051-0.423 0.422-1.049 0.722-1.689 0.722a2.321 2.321 0 0 1-1.899-0.977" fill-rule="evenodd"></path></g><g id="SvgjsG1002"><path d="M11.406 2.678H4.629C0.382 2.678 0.682 5.459 0.682 5.459h14.67S15.66 2.678 11.406 2.678zM4.629 13.447h6.777c4.254 0 3.947-2.789 3.946-2.789H0.682s-0.3 2.789 3.947 2.789z m10.087-4.135a1.259 1.259 0 0 0 1.259-1.259c0-0.69-0.562-1.252-1.259-1.252H1.259C0.566 6.801 0 7.363 0 8.052a1.262 1.262 0 0 0 1.259 1.26h13.457z" fill-rule="evenodd"></path></g><g id="SvgjsG1003"><path d="M1.507 0.867v14.666h12.877V0.867h-12.878z m3.76 12.876H3.087V11.564H5.267v2.179z m0-3.328H3.087V8.236H5.267v2.179z m3.768 3.328H6.856V11.564h2.179v2.179z m0-3.328H6.856V8.236h2.179v2.179z m3.775 3.328H10.631v-5.507h2.179v5.507z m0.08-7.65h-9.78V2.602h9.78V6.093z"></path></g><g id="SvgjsG1004"><path d="M7.47 6.623c0 0.659-0.601 1.365-1.379 1.365v6.827c0 1.58-2.152 1.58-2.152 0V7.986c-0.759 0-1.419-0.584-1.419-1.459V0.403c0-0.533 0.771-0.553 0.771 0.02v4.528h0.645V0.382c0-0.49 0.742-0.522 0.742 0.021v4.548h0.666V0.388c0-0.512 0.72-0.532 0.72 0.02v4.543h0.656V0.388c0-0.507 0.752-0.527 0.752 0.02V6.621z m5.744-4.795v12.982c0 1.545-2.158 1.522-2.157 0v-4.915h-1.149V1.829c0-2.427 3.307-2.427 3.306 0z"></path></g><g id="SvgjsG1005"><path d="M12.049 4.244l-1.49 11.735H5.527L4.041 4.244h6.146L11.403 0 12.091 0.193l-1.164 4.048 1.122 0.003z" fill-rule="evenodd"></path></g><g id="SvgjsG1006"><path d="M1.135 8.57h1.423c0.108 0 0.208 0.054 0.268 0.142 0 0 0.271 0.41 0.542 0.816 0.15-1.331 0.673-5.983 0.673-5.983a0.322 0.322 0 0 1 0.3-0.284c0.155-0.01 0.294 0.094 0.331 0.246 0 0 0.682 2.858 1.004 4.208l0.427-1.21a0.322 0.322 0 0 1 0.301-0.214c0.134-0.001 0.256 0.083 0.302 0.21 0 0 0.633 1.72 0.76 2.067h1.236c0.108 0 0.208 0.054 0.267 0.142 0 0 0.271 0.41 0.542 0.816 0.15-1.331 0.673-5.983 0.673-5.983a0.321 0.321 0 0 1 0.631-0.039s0.681 2.857 1.004 4.209c0.212-0.6 0.428-1.208 0.427-1.208a0.32 0.32 0 0 1 0.602-0.004s0.634 1.72 0.76 2.067h1.262l0.067-0.128c0.613-1.055 1.061-3.009 1.061-4.432C16 2.193 14.678 0 12.102 0c-3.679 0-4.152 3.447-4.152 3.447S7.494 0.017 3.818 0.017C1.333 0.017 0 2.13 0 4.009c0 1.622 0.71 3.625 1.074 4.448l0.061 0.113z"></path><path d="M13.385 9.211a0.321 0.321 0 0 1-0.301-0.21S12.8 8.229 12.554 7.56c-0.23 0.654-0.491 1.394-0.492 1.394a0.318 0.318 0 0 1-0.319 0.213 0.318 0.318 0 0 1-0.295-0.245L10.618 5.44l-0.567 5.036a0.321 0.321 0 0 1-0.243 0.275 0.32 0.32 0 0 1-0.342-0.133s-0.778-1.17-0.935-1.406H7.243c-0.134 0-0.254-0.085-0.3-0.21l-0.531-1.442-0.492 1.395A0.318 0.318 0 0 1 5.6 9.166a0.32 0.32 0 0 1-0.296-0.245s-0.458-1.921-0.83-3.48c-0.221 1.964-0.566 5.034-0.566 5.034a0.321 0.321 0 0 1-0.586 0.141s-0.778-1.17-0.935-1.405H1.483c2.301 4.086 6.468 6.779 6.468 6.779S12.194 13.298 14.531 9.211h-1.146z"></path></g><g id="SvgjsG1007"><use xlink:href="#SvgjsG1001" transform="translate(0, 0) scale(3)" fill="rgba(17, 86, 102, 1)"></use><use xlink:href="#SvgjsG1002" transform="translate(0, 108) scale(3)" fill="rgba(17, 86, 102, 1)"></use><use xlink:href="#SvgjsG1003" transform="translate(0, 216) scale(3)" fill="rgba(17, 86, 102, 1)"></use><use xlink:href="#SvgjsG1004" transform="translate(0, 324) scale(3)" fill="rgba(17, 86, 102, 1)"></use><use xlink:href="#SvgjsG1005" transform="translate(0, 432) scale(3)" fill="rgba(17, 86, 102, 1)"></use><use xlink:href="#SvgjsG1006" transform="translate(0, 540) scale(3)" fill="rgba(17, 86, 102, 1)"></use><use xlink:href="#SvgjsG1001" transform="translate(0, 648) scale(3)" fill="rgba(17, 86, 102, 1)"></use><use xlink:href="#SvgjsG1002" transform="translate(0, 756) scale(3)" fill="rgba(17, 86, 102, 1)"></use><use xlink:href="#SvgjsG1003" transform="translate(0, 864) scale(3)" fill="rgba(17, 86, 102, 1)"></use><use xlink:href="#SvgjsG1004" transform="translate(0, 972) scale(3)" fill="rgba(17, 86, 102, 1)"></use><use xlink:href="#SvgjsG1002" transform="translate(108, 0) scale(3)" fill="rgba(17, 86, 102, 1)"></use><use xlink:href="#SvgjsG1003" transform="translate(108, 108) scale(3)" fill="rgba(17, 86, 102, 1)"></use><use xlink:href="#SvgjsG1004" transform="translate(108, 216) scale(3)" fill="rgba(17, 86, 102, 1)"></use><use xlink:href="#SvgjsG1005" transform="translate(108, 324) scale(3)" fill="rgba(17, 86, 102, 1)"></use><use xlink:href="#SvgjsG1006" transform="translate(108, 432) scale(3)" fill="rgba(17, 86, 102, 1)"></use><use xlink:href="#SvgjsG1001" transform="translate(108, 540) scale(3)" fill="rgba(17, 86, 102, 1)"></use><use xlink:href="#SvgjsG1002" transform="translate(108, 648) scale(3)" fill="rgba(17, 86, 102, 1)"></use><use xlink:href="#SvgjsG1003" transform="translate(108, 756) scale(3)" fill="rgba(17, 86, 102, 1)"></use><use xlink:href="#SvgjsG1004" transform="translate(108, 864) scale(3)" fill="rgba(17, 86, 102, 1)"></use><use xlink:href="#SvgjsG1005" transform="translate(108, 972) scale(3)" fill="rgba(17, 86, 102, 1)"></use><use xlink:href="#SvgjsG1003" transform="translate(216, 0) scale(3)" fill="rgba(17, 86, 102, 1)"></use><use xlink:href="#SvgjsG1004" transform="translate(216, 108) scale(3)" fill="rgba(17, 86, 102, 1)"></use><use xlink:href="#SvgjsG1005" transform="translate(216, 216) scale(3)" fill="rgba(17, 86, 102, 1)"></use><use xlink:href="#SvgjsG1006" transform="translate(216, 324) scale(3)" fill="rgba(17, 86, 102, 1)"></use><use xlink:href="#SvgjsG1001" transform="translate(216, 432) scale(3)" fill="rgba(17, 86, 102, 1)"></use><use xlink:href="#SvgjsG1002" transform="translate(216, 540) scale(3)" fill="rgba(17, 86, 102, 1)"></use><use xlink:href="#SvgjsG1003" transform="translate(216, 648) scale(3)" fill="rgba(17, 86, 102, 1)"></use><use xlink:href="#SvgjsG1004" transform="translate(216, 756) scale(3)" fill="rgba(17, 86, 102, 1)"></use><use xlink:href="#SvgjsG1005" transform="translate(216, 864) scale(3)" fill="rgba(17, 86, 102, 1)"></use><use xlink:href="#SvgjsG1006" transform="translate(216, 972) scale(3)" fill="rgba(17, 86, 102, 1)"></use><use xlink:href="#SvgjsG1004" transform="translate(324, 0) scale(3)" fill="rgba(17, 86, 102, 1)"></use><use xlink:href="#SvgjsG1005" transform="translate(324, 108) scale(3)" fill="rgba(17, 86, 102, 1)"></use><use xlink:href="#SvgjsG1006" transform="translate(324, 216) scale(3)" fill="rgba(17, 86, 102, 1)"></use><use xlink:href="#SvgjsG1001" transform="translate(324, 324) scale(3)" fill="rgba(17, 86, 102, 1)"></use><use xlink:href="#SvgjsG1002" transform="translate(324, 432) scale(3)" fill="rgba(17, 86, 102, 1)"></use><use xlink:href="#SvgjsG1003" transform="translate(324, 540) scale(3)" fill="rgba(17, 86, 102, 1)"></use><use xlink:href="#SvgjsG1004" transform="translate(324, 648) scale(3)" fill="rgba(17, 86, 102, 1)"></use><use xlink:href="#SvgjsG1005" transform="translate(324, 756) scale(3)" fill="rgba(17, 86, 102, 1)"></use><use xlink:href="#SvgjsG1006" transform="translate(324, 864) scale(3)" fill="rgba(17, 86, 102, 1)"></use><use xlink:href="#SvgjsG1001" transform="translate(324, 972) scale(3)" fill="rgba(17, 86, 102, 1)"></use><use xlink:href="#SvgjsG1005" transform="translate(432, 0) scale(3)" fill="rgba(17, 86, 102, 1)"></use><use xlink:href="#SvgjsG1006" transform="translate(432, 108) scale(3)" fill="rgba(17, 86, 102, 1)"></use><use xlink:href="#SvgjsG1001" transform="translate(432, 216) scale(3)" fill="rgba(17, 86, 102, 1)"></use><use xlink:href="#SvgjsG1002" transform="translate(432, 324) scale(3)" fill="rgba(17, 86, 102, 1)"></use><use xlink:href="#SvgjsG1003" transform="translate(432, 432) scale(3)" fill="rgba(17, 86, 102, 1)"></use><use xlink:href="#SvgjsG1004" transform="translate(432, 540) scale(3)" fill="rgba(17, 86, 102, 1)"></use><use xlink:href="#SvgjsG1005" transform="translate(432, 648) scale(3)" fill="rgba(17, 86, 102, 1)"></use><use xlink:href="#SvgjsG1006" transform="translate(432, 756) scale(3)" fill="rgba(17, 86, 102, 1)"></use><use xlink:href="#SvgjsG1001" transform="translate(432, 864) scale(3)" fill="rgba(17, 86, 102, 1)"></use><use xlink:href="#SvgjsG1002" transform="translate(432, 972) scale(3)" fill="rgba(17, 86, 102, 1)"></use><use xlink:href="#SvgjsG1006" transform="translate(540, 0) scale(3)" fill="rgba(17, 86, 102, 1)"></use><use xlink:href="#SvgjsG1001" transform="translate(540, 108) scale(3)" fill="rgba(17, 86, 102, 1)"></use><use xlink:href="#SvgjsG1002" transform="translate(540, 216) scale(3)" fill="rgba(17, 86, 102, 1)"></use><use xlink:href="#SvgjsG1003" transform="translate(540, 324) scale(3)" fill="rgba(17, 86, 102, 1)"></use><use xlink:href="#SvgjsG1004" transform="translate(540, 432) scale(3)" fill="rgba(17, 86, 102, 1)"></use><use xlink:href="#SvgjsG1005" transform="translate(540, 540) scale(3)" fill="rgba(17, 86, 102, 1)"></use><use xlink:href="#SvgjsG1006" transform="translate(540, 648) scale(3)" fill="rgba(17, 86, 102, 1)"></use><use xlink:href="#SvgjsG1001" transform="translate(540, 756) scale(3)" fill="rgba(17, 86, 102, 1)"></use><use xlink:href="#SvgjsG1002" transform="translate(540, 864) scale(3)" fill="rgba(17, 86, 102, 1)"></use><use xlink:href="#SvgjsG1003" transform="translate(540, 972) scale(3)" fill="rgba(17, 86, 102, 1)"></use><use xlink:href="#SvgjsG1001" transform="translate(648, 0) scale(3)" fill="rgba(17, 86, 102, 1)"></use><use xlink:href="#SvgjsG1002" transform="translate(648, 108) scale(3)" fill="rgba(17, 86, 102, 1)"></use><use xlink:href="#SvgjsG1003" transform="translate(648, 216) scale(3)" fill="rgba(17, 86, 102, 1)"></use><use xlink:href="#SvgjsG1004" transform="translate(648, 324) scale(3)" fill="rgba(17, 86, 102, 1)"></use><use xlink:href="#SvgjsG1005" transform="translate(648, 432) scale(3)" fill="rgba(17, 86, 102, 1)"></use><use xlink:href="#SvgjsG1006" transform="translate(648, 540) scale(3)" fill="rgba(17, 86, 102, 1)"></use><use xlink:href="#SvgjsG1001" transform="translate(648, 648) scale(3)" fill="rgba(17, 86, 102, 1)"></use><use xlink:href="#SvgjsG1002" transform="translate(648, 756) scale(3)" fill="rgba(17, 86, 102, 1)"></use><use xlink:href="#SvgjsG1003" transform="translate(648, 864) scale(3)" fill="rgba(17, 86, 102, 1)"></use><use xlink:href="#SvgjsG1004" transform="translate(648, 972) scale(3)" fill="rgba(17, 86, 102, 1)"></use><use xlink:href="#SvgjsG1002" transform="translate(756, 0) scale(3)" fill="rgba(17, 86, 102, 1)"></use><use xlink:href="#SvgjsG1003" transform="translate(756, 108) scale(3)" fill="rgba(17, 86, 102, 1)"></use><use xlink:href="#SvgjsG1004" transform="translate(756, 216) scale(3)" fill="rgba(17, 86, 102, 1)"></use><use xlink:href="#SvgjsG1005" transform="translate(756, 324) scale(3)" fill="rgba(17, 86, 102, 1)"></use><use xlink:href="#SvgjsG1006" transform="translate(756, 432) scale(3)" fill="rgba(17, 86, 102, 1)"></use><use xlink:href="#SvgjsG1001" transform="translate(756, 540) scale(3)" fill="rgba(17, 86, 102, 1)"></use><use xlink:href="#SvgjsG1002" transform="translate(756, 648) scale(3)" fill="rgba(17, 86, 102, 1)"></use><use xlink:href="#SvgjsG1003" transform="translate(756, 756) scale(3)" fill="rgba(17, 86, 102, 1)"></use><use xlink:href="#SvgjsG1004" transform="translate(756, 864) scale(3)" fill="rgba(17, 86, 102, 1)"></use><use xlink:href="#SvgjsG1005" transform="translate(756, 972) scale(3)" fill="rgba(17, 86, 102, 1)"></use><use xlink:href="#SvgjsG1003" transform="translate(864, 0) scale(3)" fill="rgba(17, 86, 102, 1)"></use><use xlink:href="#SvgjsG1004" transform="translate(864, 108) scale(3)" fill="rgba(17, 86, 102, 1)"></use><use xlink:href="#SvgjsG1005" transform="translate(864, 216) scale(3)" fill="rgba(17, 86, 102, 1)"></use><use xlink:href="#SvgjsG1006" transform="translate(864, 324) scale(3)" fill="rgba(17, 86, 102, 1)"></use><use xlink:href="#SvgjsG1001" transform="translate(864, 432) scale(3)" fill="rgba(17, 86, 102, 1)"></use><use xlink:href="#SvgjsG1002" transform="translate(864, 540) scale(3)" fill="rgba(17, 86, 102, 1)"></use><use xlink:href="#SvgjsG1003" transform="translate(864, 648) scale(3)" fill="rgba(17, 86, 102, 1)"></use><use xlink:href="#SvgjsG1004" transform="translate(864, 756) scale(3)" fill="rgba(17, 86, 102, 1)"></use><use xlink:href="#SvgjsG1005" transform="translate(864, 864) scale(3)" fill="rgba(17, 86, 102, 1)"></use><use xlink:href="#SvgjsG1006" transform="translate(864, 972) scale(3)" fill="rgba(17, 86, 102, 1)"></use><use xlink:href="#SvgjsG1004" transform="translate(972, 0) scale(3)" fill="rgba(17, 86, 102, 1)"></use><use xlink:href="#SvgjsG1005" transform="translate(972, 108) scale(3)" fill="rgba(17, 86, 102, 1)"></use><use xlink:href="#SvgjsG1006" transform="translate(972, 216) scale(3)" fill="rgba(17, 86, 102, 1)"></use><use xlink:href="#SvgjsG1001" transform="translate(972, 324) scale(3)" fill="rgba(17, 86, 102, 1)"></use><use xlink:href="#SvgjsG1002" transform="translate(972, 432) scale(3)" fill="rgba(17, 86, 102, 1)"></use><use xlink:href="#SvgjsG1003" transform="translate(972, 540) scale(3)" fill="rgba(17, 86, 102, 1)"></use><use xlink:href="#SvgjsG1004" transform="translate(972, 648) scale(3)" fill="rgba(17, 86, 102, 1)"></use><use xlink:href="#SvgjsG1005" transform="translate(972, 756) scale(3)" fill="rgba(17, 86, 102, 1)"></use><use xlink:href="#SvgjsG1006" transform="translate(972, 864) scale(3)" fill="rgba(17, 86, 102, 1)"></use><use xlink:href="#SvgjsG1001" transform="translate(972, 972) scale(3)" fill="rgba(17, 86, 102, 1)"></use></g></defs></svg>